<?xml version="1.0"?><svg xmlns="http://www.w3.org/2000/svg" viewBox="0 0 100 100"><g><ellipse transform="rotate(-30 43.573 74.065)" cx="43.6" cy="74.1" rx="14.3" ry="9.5" fill="#333"/></g><g><path d="M56.8 15c0 .8 0 1.6.4 2.3.2.4.2.7.5 1.1.2.3.5.6.7.9.6.6 1 1.2 1.6 1.7.6.5 1.1 1.1 1.6 1.8 1.9 2.6 4.2 5.4 6.1 8.6 1 1.6 1.7 3.4 2.4 5.1.3.9.6 1.8.7 2.8l.2 1.4c0 .5.1.9.1 1.4.1 1.9-.2 3.9-.8 5.6-.3.9-.7 1.7-1 2.5-.4.8-.6 1.6-1.2 2.3-.2.3-.6.3-.9.1-.1-.1-.2-.3-.2-.4-.1-1 .3-1.8.5-2.7.3-.8.5-1.6.7-2.4.4-1.6.5-3.1.2-4.7-.1-.4-.2-.8-.2-1.2l-.4-1.1c-.2-.8-.6-1.5-.9-2.2-.8-1.4-1.7-2.7-2.8-3.9-2.1-2.5-4.7-4.7-7.1-7.6-.6-.7-1.1-1.6-1.4-2.5-.4-.9-.7-1.9-.9-2.9-.3-2-.5-3.9-.7-5.9-.1-.8.5-1.6 1.3-1.6.8-.1 1.6.5 1.6 1.3v.1l-.1.1z" fill="#333"/></g><path fill="none" stroke="#333" stroke-width="3" stroke-linecap="round" stroke-linejoin="round" stroke-miterlimit="10" d="M55.3 68.7V15"/><g><path d="M56.8 29c0 .8 0 1.6.4 2.3.2.4.2.7.5 1.1.2.3.5.6.7.9.6.6 1 1.2 1.6 1.7.6.5 1.1 1.1 1.6 1.8 1.9 2.6 4.2 5.4 6.1 8.6 1 1.6 1.7 3.4 2.4 5.1.3.9.6 1.8.7 2.8l.2 1.4c0 .5.1.9.1 1.4.1 1.9-.2 3.9-.8 5.6-.3.9-.7 1.7-1 2.5-.4.8-.6 1.6-1.2 2.3-.2.3-.6.3-.9.1-.1-.1-.2-.3-.2-.4-.1-1 .3-1.8.5-2.7.3-.8.5-1.6.7-2.4.4-1.6.5-3.1.2-4.7-.1-.4-.2-.8-.2-1.2l-.4-1.1c-.2-.8-.6-1.5-.9-2.2-.8-1.4-1.7-2.7-2.8-3.9-2.1-2.5-4.7-4.7-7.1-7.6-.6-.7-1.1-1.6-1.4-2.5-.4-.9-.7-1.9-.9-2.9-.3-2-.5-3.9-.7-5.9-.1-.8.5-1.6 1.3-1.6.8-.1 1.6.5 1.6 1.3v.1l-.1.1z" fill="#333"/></g><metadata xmlns:d="https://loading.io/stock/">
<d:name>note</d:name>
<d:tags>note,sixteenth,semiquarver,music</d:tags>
<d:license>by</d:license>
<d:slug>1lpjlt</d:slug>
</metadata></svg>