<?xml version="1.0"?><svg xmlns="http://www.w3.org/2000/svg" viewBox="0 0 100 100"><g><ellipse transform="rotate(-30 43.573 74.065)" cx="43.6" cy="74.1" rx="14.3" ry="9.5" fill="#333"/></g><g><path d="M56.8 15c0 .9 0 1.8.4 2.6.2.4.2.8.5 1.2.2.4.5.8.7 1.1.3.4.5.7.8 1.1.2.4.5.7.8 1 .6.7 1.2 1.3 1.6 2.1 1.9 3.1 4.3 6.3 6.2 10 .5.9.9 1.9 1.3 2.8.2.5.3 1 .5 1.5s.4 1 .5 1.5c.3 1 .5 2 .7 3.1.2 1 .3 2 .3 3.1.1 2.1-.2 4.2-.8 6.2-.3 1-.7 1.9-1 2.8-.4.9-.6 1.8-1.2 2.6-.2.3-.6.4-.9.2-.2-.1-.3-.3-.3-.5-.1-1.1.3-2 .5-2.9.3-.9.5-1.9.7-2.8.4-1.8.4-3.6.2-5.4-.6-3.6-2.1-6.9-4.3-9.8-2.1-3-4.8-5.7-7.2-9-.3-.4-.6-.9-.8-1.3l-.6-1.5c-.2-.5-.3-1-.5-1.6-.1-.5-.3-1-.4-1.6-.3-2.2-.5-4.3-.7-6.4-.1-.8.5-1.6 1.3-1.6.8-.1 1.6.5 1.6 1.3v.1l.1.1z" fill="#333"/></g><path fill="none" stroke="#333" stroke-width="3" stroke-linecap="round" stroke-linejoin="round" stroke-miterlimit="10" d="M55.3 68.7V15"/><circle cx="64.7" cy="71.3" r="3" fill="#333"/><metadata xmlns:d="https://loading.io/stock/">
<d:name>note</d:name>
<d:tags>note,eighth,quaver</d:tags>
<d:license>by</d:license>
<d:slug>lq0ezt</d:slug>
</metadata></svg>