<?xml version="1.0"?><svg xmlns="http://www.w3.org/2000/svg" viewBox="0 0 100 100"><path d="M63.6 69.3c-9.6-10.9-7.2-26.2-2.3-38.7 1.3-5.4-1.3-10.9-6.3-13.3L39.8 10c9.6 11.5 6 22.8 1.7 36.8-1.1 3.7-.5 9 5.8 14.5l5.3 3.4c-6.2-1.1-11.1.6-14.5 4.2-4.3 4.5-1.4 13.3 5.5 18.7.6.5 2.5 1.5 3.9 2.3.4.2.8-.2.6-.6-2.6-4-4.5-10-1.6-13.7 3.1-4 10.7-6.3 15.3-4.8l.3.2c.2.1.3.1.5.1h.1V71c1 0 1.5-1 .9-1.7z" fill="#333"/><metadata xmlns:d="https://loading.io/stock/">
<d:name>rest</d:name>
<d:tags>rest,silence,pause,note,quarter,crotchet</d:tags>
<d:license>by</d:license>
<d:slug>ibvsnn</d:slug>
</metadata></svg>