<?xml version="1.0"?><svg xmlns="http://www.w3.org/2000/svg" viewBox="0 0 100 100"><g><ellipse transform="rotate(-30 43.573 74.065)" cx="43.6" cy="74.1" rx="14.3" ry="9.5" fill="#333"/></g><g><path d="M56.8 15c0 1.2.5 2.4 1.5 3.2l1.5 1.2c.5.4 1.1.8 1.5 1.3 1.8 2 3.9 4.2 5.8 6.7.9 1.3 1.8 2.7 2.5 4.2.2.4.3.8.5 1.2.1.4.3.8.4 1.2.2.8.4 1.6.5 2.4.2 1.7-.1 3.5-.7 4.9-.3.7-.7 1.4-1.1 2.1-.4.6-.6 1.3-1.2 1.8-.3.2-.7.2-.9 0-.1-.1-.2-.3-.2-.4-.1-.9.3-1.5.6-2.2.3-.7.5-1.4.7-2 .4-1.3.4-2.5.1-3.7-.7-2.5-2.3-4.6-4.4-6.4-2-1.8-4.5-3.4-6.7-5.7-.6-.6-1.1-1.2-1.4-2-.4-.8-.7-1.6-1-2.4-.2-.9-.4-1.7-.5-2.6-.2-.8-.2-1.7-.4-2.6-.2-.8.4-1.6 1.2-1.8.8-.2 1.6.4 1.8 1.2v.3l-.1.1z" fill="#333"/></g><path fill="none" stroke="#333" stroke-width="3" stroke-linecap="round" stroke-linejoin="round" stroke-miterlimit="10" d="M55.3 68.7V15"/><g><path d="M56.8 26.2c0 1.2.5 2.4 1.5 3.2l1.5 1.2c.5.4 1.1.8 1.5 1.3 1.8 2 3.9 4.2 5.8 6.7.9 1.3 1.8 2.7 2.5 4.2.2.4.3.8.5 1.2.1.4.3.8.4 1.2.2.8.4 1.6.5 2.4.2 1.7-.1 3.5-.7 4.9-.3.7-.7 1.4-1.1 2.1-.4.6-.6 1.3-1.2 1.8-.3.2-.7.2-.9 0-.1-.1-.2-.3-.2-.4-.1-.9.3-1.5.6-2.2.3-.7.5-1.4.7-2 .4-1.3.4-2.5.1-3.7-.7-2.5-2.3-4.6-4.4-6.4-2-1.8-4.5-3.4-6.7-5.7-.6-.6-1.1-1.2-1.4-2-.4-.8-.7-1.6-1-2.4-.2-.9-.4-1.7-.5-2.6-.2-.8-.2-1.7-.4-2.6-.2-.8.4-1.6 1.2-1.8.8-.2 1.6.4 1.8 1.2v.3l-.1.1z" fill="#333"/></g><g><path d="M56.8 37.5c0 1.2.5 2.4 1.5 3.2l1.5 1.2c.5.4 1.1.8 1.5 1.3 1.8 2 3.9 4.2 5.8 6.7.9 1.3 1.8 2.7 2.5 4.2.2.4.3.8.5 1.2.1.4.3.8.4 1.2.2.8.4 1.6.5 2.4.2 1.7-.1 3.5-.7 4.9-.3.7-.7 1.4-1.1 2.1-.4.6-.6 1.3-1.2 1.8-.3.2-.7.2-.9 0-.1-.1-.2-.3-.2-.4-.1-.9.3-1.5.6-2.2.3-.7.5-1.4.7-2 .4-1.3.4-2.5.1-3.7-.7-2.5-2.3-4.6-4.4-6.4-2-1.8-4.5-3.4-6.7-5.7-.6-.6-1.1-1.2-1.4-2-.4-.8-.7-1.6-1-2.4-.2-.9-.4-1.7-.5-2.6-.2-.8-.2-1.7-.4-2.6-.2-.8.4-1.6 1.2-1.8.8-.2 1.6.4 1.8 1.2v.3l-.1.1z" fill="#333"/></g><circle cx="64.7" cy="71.3" r="3" fill="#333"/><metadata xmlns:d="https://loading.io/stock/">
<d:name>note</d:name>
<d:tags>note,thirty-second,demisemiquaver</d:tags>
<d:license>by</d:license>
<d:slug>70te7a</d:slug>
</metadata></svg>