<?xml version="1.0"?><svg xmlns="http://www.w3.org/2000/svg" viewBox="0 0 100 100"><g><path d="M54.5 66.1c2.5 0 4.5.8 5.3 2.3 1 1.8.2 4-.3 5.1-1.2 2.4-3.4 4.6-6.2 6.2-2.6 1.5-5.3 2.3-7.8 2.3s-4.5-.8-5.3-2.3c-1-1.8-.2-4 .3-5.1 1.2-2.4 3.4-4.6 6.2-6.2 2.6-1.5 5.3-2.3 7.8-2.3m0-3c-2.9 0-6.2.9-9.3 2.7-6.8 4-10.3 10.9-7.6 15.4C39 83.7 42 85 45.5 85c2.9 0 6.2-.9 9.3-2.7 6.8-4 10.3-10.9 7.6-15.4-1.4-2.5-4.4-3.8-7.9-3.8z" fill="#333"/></g><path fill="none" stroke="#333" stroke-width="3" stroke-linecap="round" stroke-miterlimit="10" d="M61.7 68.7V15"/><circle cx="72.7" cy="71.3" r="3" fill="#333"/><metadata xmlns:d="https://loading.io/stock/">
<d:name>note</d:name>
<d:tags>note,half,minim</d:tags>
<d:license>by</d:license>
<d:slug>pjvn8b</d:slug>
</metadata></svg>